<svg width="467" height="467" viewBox="0 0 467 467" fill="none" xmlns="http://www.w3.org/2000/svg">
<path d="M455 305C455 324.882 356.055 341 234 341C111.945 341 13 324.882 13 305C13 285.118 111.945 269 234 269C356.055 269 455 285.118 455 305Z" fill="#111315"/>
<path d="M453 305C453 303.408 452.01 301.495 449.265 299.31C446.549 297.148 442.422 294.975 436.914 292.854C425.92 288.619 409.894 284.768 389.949 281.519C350.092 275.026 294.954 271 234 271C173.046 271 117.908 275.026 78.0508 281.519C58.1062 284.768 42.0803 288.619 31.0859 292.854C25.5783 294.975 21.4505 297.148 18.7354 299.31C15.9899 301.495 15 303.408 15 305C15 306.592 15.9899 308.505 18.7354 310.691C21.4505 312.852 25.5783 315.025 31.0859 317.147C42.0803 321.381 58.1062 325.233 78.0508 328.482C117.908 334.974 173.046 339 234 339V341C111.945 341 13 324.882 13 305C13 285.118 111.945 269 234 269C356.055 269 455 285.118 455 305C455 324.882 356.055 341 234 341V339C294.954 339 350.092 334.974 389.949 328.482C409.894 325.233 425.92 321.381 436.914 317.147C442.422 315.025 446.549 312.852 449.265 310.691C452.01 308.505 453 306.592 453 305Z" fill="#111315"/>
<path d="M463 269C463 288.882 360.249 305 233.5 305C106.751 305 4 288.882 4 269C4 249.118 106.751 233 233.5 233C360.249 233 463 249.118 463 269Z" fill="#F8F4F1"/>
<path d="M461 269C461 267.441 459.99 265.531 457.121 263.332C454.293 261.164 449.995 258.986 444.27 256.862C432.84 252.624 416.187 248.769 395.471 245.52C354.07 239.025 296.804 235 233.5 235C170.196 235 112.93 239.025 71.5293 245.52C50.8133 248.769 34.1599 252.624 22.7305 256.862C17.0045 258.986 12.7074 261.164 9.87891 263.332C7.00995 265.531 6 267.441 6 269C6 270.559 7.00995 272.469 9.87891 274.668C12.7074 276.836 17.0045 279.014 22.7305 281.138C34.1599 285.377 50.8133 289.231 71.5293 292.481C112.93 298.975 170.196 303 233.5 303V305C106.751 305 4 288.882 4 269C4 249.118 106.751 233 233.5 233C360.249 233 463 249.118 463 269C463 288.882 360.249 305 233.5 305V303C296.804 303 354.07 298.975 395.471 292.481C416.187 289.231 432.84 285.377 444.27 281.138C449.995 279.014 454.293 276.836 457.121 274.668C459.99 272.469 461 270.559 461 269Z" fill="#111315"/>
<path d="M466 234C466 253.882 361.682 270 233 270C104.318 270 0 253.882 0 234C0 214.118 104.318 198 233 198C361.682 198 466 214.118 466 234Z" fill="#111315"/>
<path d="M464 234C464 232.454 462.982 230.546 460.062 228.341C457.186 226.17 452.82 223.991 447.004 221.866C435.395 217.626 418.484 213.77 397.45 210.521C355.414 204.026 297.271 200 233 200C168.729 200 110.586 204.026 68.5498 210.521C47.5163 213.77 30.6046 217.626 18.9961 221.866C13.1805 223.991 8.81369 226.17 5.93848 228.341C3.01815 230.546 2 232.454 2 234C2 235.546 3.01815 237.454 5.93848 239.659C8.81369 241.83 13.1805 244.009 18.9961 246.134C30.6046 250.374 47.5163 254.23 68.5498 257.48C110.586 263.974 168.729 268 233 268V270C104.318 270 0 253.882 0 234C0 214.118 104.318 198 233 198C361.682 198 466 214.118 466 234C466 253.882 361.682 270 233 270V268C297.271 268 355.414 263.974 397.45 257.48C418.484 254.23 435.395 250.374 447.004 246.134C452.82 244.009 457.186 241.83 460.062 239.659C462.982 237.454 464 235.546 464 234Z" fill="#111315"/>
<path d="M463 198C463 217.882 360.249 234 233.5 234C106.751 234 4 217.882 4 198C4 178.118 106.751 162 233.5 162C360.249 162 463 178.118 463 198Z" fill="#F8F4F1"/>
<path d="M461 198C461 196.441 459.99 194.531 457.121 192.332C454.293 190.164 449.995 187.986 444.27 185.862C432.84 181.624 416.187 177.769 395.471 174.52C354.07 168.025 296.804 164 233.5 164C170.196 164 112.93 168.025 71.5293 174.52C50.8133 177.769 34.1599 181.624 22.7305 185.862C17.0045 187.986 12.7074 190.164 9.87891 192.332C7.00995 194.531 6 196.441 6 198C6 199.559 7.00995 201.469 9.87891 203.668C12.7074 205.836 17.0045 208.014 22.7305 210.138C34.1599 214.377 50.8133 218.231 71.5293 221.481C112.93 227.975 170.196 232 233.5 232V234C106.751 234 4 217.882 4 198C4 178.118 106.751 162 233.5 162C360.249 162 463 178.118 463 198C463 217.882 360.249 234 233.5 234V232C296.804 232 354.07 227.975 395.471 221.481C416.187 218.231 432.84 214.377 444.27 210.138C449.995 208.014 454.293 205.836 457.121 203.668C459.99 201.469 461 199.559 461 198Z" fill="#111315"/>
<path d="M464.926 233.463C464.926 105.63 361.296 2.00019 233.463 2.00008C105.63 2.00008 2 105.63 2 233.463C2.00011 361.296 105.63 464.926 233.463 464.926V466.926L231.953 466.921C104.213 466.112 0.813942 362.713 0.00488281 234.973L0 233.463C0 104.525 104.525 8.01656e-05 233.463 8.01656e-05L234.973 0.00496298C363.216 0.817207 466.926 105.029 466.926 233.463L466.921 234.973C466.109 363.216 361.897 466.926 233.463 466.926V464.926C361.296 464.926 464.926 361.296 464.926 233.463Z" fill="#111315"/>
<path d="M390.642 233.463C390.642 169.343 372.918 111.381 344.367 69.5059C315.808 27.6209 276.563 2.00008 233.463 2.00008C190.363 2.00024 151.117 27.6211 122.559 69.5059C94.0078 111.381 76.2836 169.343 76.2836 233.463C76.2836 297.583 94.0078 355.544 122.559 397.419C151.117 439.304 190.363 464.926 233.463 464.926V466.926L232.433 466.921C145.681 466.115 75.3936 363.525 74.2963 236.48L74.2836 233.463C74.2836 104.525 145.551 0.000394717 233.463 8.01656e-05L234.493 0.00488281C321.931 0.817407 392.642 105.029 392.642 233.463L392.628 236.48C391.527 364.028 320.688 466.926 233.463 466.926V464.926C276.563 464.926 315.808 439.304 344.367 397.419C372.918 355.544 390.642 297.583 390.642 233.463Z" fill="#111315"/>
<path d="M304.568 233.463C304.568 169.138 296.466 110.981 283.418 68.9727C276.89 47.9565 269.158 31.0945 260.666 19.5303C252.144 7.92514 243.126 2 234.052 2C224.978 2.00012 215.96 7.92516 207.438 19.5303C198.945 31.0945 191.214 47.9567 184.687 68.9727C171.639 110.981 163.537 169.138 163.537 233.463C163.537 297.788 171.639 355.944 184.687 397.952C191.214 418.968 198.946 435.83 207.438 447.395C215.96 459 224.978 464.926 234.052 464.926V466.926L233.583 466.921C194.063 466.115 162.043 363.525 161.543 236.48L161.537 233.463C161.537 104.525 194.003 0.000477957 234.052 0L234.522 0.00488281C274.355 0.817902 306.568 105.029 306.568 233.463L306.561 236.48C306.059 364.028 273.788 466.926 234.052 466.926V464.926C243.126 464.926 252.144 459 260.666 447.395C269.158 435.83 276.89 418.968 283.418 397.952C296.466 355.944 304.568 297.788 304.568 233.463Z" fill="#111315"/>
</svg>
